# xmcd
#
# Track frame offsets:
#	150
#	18391
#	35142
#	61984
#	84391
#	105857
#	122956
#	140357
#	166566
#	192111
#
# Disc length: 2779 seconds
#
# Revision: 0
# Processed by: cddbd v1.5.2PL0 Copyright (c) Steve Scherf et al.
# Submitted via: audiograbber 1.82.02
#
DISCID=770ad90a
DTITLE=Kenny Loggins - Kenny Loggins - Whenever I Call You Friend
DYEAR=2005
DGENRE=Rock
TTITLE0=Whenever I Call You Friend (Featuring Stevie Nicks)
TTITLE1=What A Fool Believes
TTITLE2=Angelique
TTITLE3=Give It Half A Chance
TTITLE4=Celeberate Me Home
TTITLE5=True Confessions
TTITLE6=Blue On Blue
TTITLE7=Sweet Reunion
TTITLE8=The Real Thing
TTITLE9=Footloose
EXTD=
EXTT0=
EXTT1=
EXTT2=
EXTT3=
EXTT4=
EXTT5=
EXTT6=
EXTT7=
EXTT8=
EXTT9=
PLAYORDER=
